<?xml version="1.0" standalone="no"?>
<!DOCTYPE svg PUBLIC "-//W3C//DTD SVG 20010904//EN"
 "http://www.w3.org/TR/2001/REC-SVG-20010904/DTD/svg10.dtd">
<svg version="1.0" xmlns="http://www.w3.org/2000/svg"
 width="442.000000pt" height="564.000000pt" viewBox="0 0 442.000000 564.000000"
 preserveAspectRatio="xMidYMid meet">

<g transform="translate(0.000000,564.000000) scale(0.100000,-0.100000)"
fill="#000000" stroke="none">
<path d="M2242 3650 c-109 -29 -152 -51 -212 -112 -87 -86 -176 -264 -186
-368 -3 -30 -8 -108 -12 -173 -7 -118 -7 -119 17 -136 18 -14 22 -23 16 -37
-9 -22 -7 -73 5 -94 5 -9 11 6 15 43 4 32 15 68 25 80 18 22 18 22 35 -35 9
-32 21 -61 27 -64 8 -5 9 -1 3 12 -5 10 -11 53 -13 95 -3 62 0 79 15 98 15 18
25 22 42 16 21 -6 22 -8 6 -32 -17 -25 -16 -26 11 -49 16 -13 35 -24 42 -25
22 -3 27 -4 38 -11 21 -14 54 3 54 28 0 13 4 24 9 24 5 0 7 -10 4 -21 -6 -20
-3 -21 23 -15 41 11 56 26 51 53 -2 12 0 20 4 17 16 -10 9 -84 -11 -124 -11
-22 -33 -49 -50 -61 -30 -23 -46 -49 -30 -49 18 0 91 83 116 131 19 38 30 49
48 49 29 0 39 -13 55 -70 7 -25 24 -64 37 -87 13 -23 21 -49 18 -57 -8 -20 -9
-20 -40 0 -19 13 -28 14 -37 5 -14 -14 -74 -15 -82 -1 -3 6 -24 10 -46 10 -45
0 -44 -9 9 -68 22 -25 36 -32 50 -27 12 3 24 1 29 -7 4 -7 24 -13 45 -13 31 0
35 2 27 17 -15 27 -10 38 15 38 26 0 61 43 50 61 -4 8 1 9 17 4 21 -5 21 -3
-8 22 -49 42 -80 131 -52 148 6 4 9 0 7 -10 -2 -10 3 -20 10 -22 6 -3 12 4 13
14 0 10 3 13 6 6 2 -7 17 -13 31 -14 l27 -1 -24 -7 c-22 -6 -18 -9 32 -26 49
-17 62 -17 105 -7 26 7 56 10 65 6 11 -4 17 -1 17 9 0 8 -7 17 -15 21 -8 3
-15 14 -15 25 0 11 -5 23 -10 26 -6 4 -7 11 -4 17 5 7 -1 9 -18 5 -15 -4 -33
-1 -46 8 -13 10 -23 12 -27 5 -3 -5 -11 -10 -17 -10 -7 0 -6 6 2 15 7 8 22 15
34 15 28 0 89 -22 110 -39 33 -27 11 -161 -33 -198 -14 -13 -21 -23 -15 -23
18 0 41 24 63 65 l22 40 -4 -74 c-5 -84 0 -111 19 -111 16 0 19 41 5 55 -6 6
-4 20 4 35 l14 25 1 -30 c1 -57 16 -59 38 -5 18 43 19 52 7 57 -8 3 -22 3 -30
-1 -19 -7 -19 3 -1 23 15 17 38 106 57 215 20 120 -3 277 -51 346 -10 14 -23
43 -29 65 -6 22 -17 49 -24 60 -7 11 -21 41 -30 66 -22 57 -89 126 -136 138
-20 6 -88 12 -151 15 -95 5 -128 2 -188 -14z m148 -295 c16 -15 31 -17 87 -12
58 4 71 2 104 -18 37 -24 96 -90 118 -132 7 -14 9 -41 5 -70 -4 -36 -1 -62 15
-103 25 -65 26 -81 6 -74 -8 4 -15 12 -15 19 0 7 -8 23 -18 34 -14 18 -31 23
-97 28 -44 3 -84 5 -90 4 -43 -3 -57 -11 -87 -43 -28 -31 -41 -38 -72 -38 -37
0 -43 6 -49 47 -5 38 -35 60 -90 68 -29 4 -62 7 -74 6 -11 -1 -24 2 -27 8 -15
23 -96 -10 -96 -39 0 -17 7 -20 48 -20 26 0 52 -4 59 -8 6 -4 -28 -5 -75 -3
-48 1 -89 5 -91 7 -3 2 5 14 16 27 36 41 63 94 69 138 6 42 45 99 68 99 5 0
17 7 26 15 10 9 48 31 86 50 76 39 139 42 174 10z m-230 -375 c11 -7 -3 -10
-47 -10 -36 0 -63 4 -63 10 0 13 90 13 110 0z m298 -95 c-3 -3 -9 2 -12 12 -6
14 -5 15 5 6 7 -7 10 -15 7 -18z m-321 -1 c-3 -3 -12 -4 -19 -1 -8 3 -5 6 6 6
11 1 17 -2 13 -5z m373 -20 c0 -8 -5 -12 -10 -9 -6 4 -8 11 -5 16 9 14 15 11
15 -7z"/>
<path d="M1800 2810 l0 -41 27 27 c25 26 26 27 8 40 -29 22 -35 17 -35 -26z"/>
<path d="M1990 2746 c0 -13 70 -36 110 -36 61 0 48 16 -17 23 -32 3 -66 8 -75
12 -10 4 -18 4 -18 1z"/>
<path d="M2521 2679 c17 -11 119 -12 119 -1 0 4 -30 8 -67 9 -42 1 -61 -2 -52
-8z"/>
<path d="M1886 2585 c-3 -8 -1 -15 4 -15 6 0 10 7 10 15 0 8 -2 15 -4 15 -2 0
-6 -7 -10 -15z"/>
<path d="M2129 2577 c-13 -7 -25 -22 -27 -33 -3 -18 3 -22 39 -27 23 -3 49 -1
59 5 12 8 30 7 65 -6 27 -9 67 -16 88 -16 22 0 48 -7 57 -15 9 -8 31 -18 48
-21 28 -6 32 -4 32 15 0 11 5 21 10 21 19 0 10 28 -15 44 -32 21 -45 20 -45
-4 0 -24 -4 -25 -34 -4 -14 9 -42 14 -68 13 -23 -1 -54 3 -68 8 -26 11 -42 10
-79 -2 -15 -4 -21 -2 -21 9 0 22 -13 26 -41 13z"/>
<path d="M2686 2475 c-3 -9 0 -15 9 -15 9 0 12 6 9 15 -4 8 -7 15 -9 15 -2 0
-5 -7 -9 -15z"/>
<path d="M1935 2450 c4 -14 8 -27 8 -30 1 -3 -9 -16 -21 -30 -43 -50 -139
-185 -146 -205 -3 -12 -31 -32 -66 -48 -50 -25 -67 -28 -112 -23 -167 18 -204
17 -288 -1 -85 -19 -85 -20 -81 -49 1 -16 7 -36 12 -45 6 -11 4 -21 -4 -28
-10 -8 -18 0 -35 34 -15 31 -18 45 -9 49 7 2 1 5 -11 5 l-24 1 20 -33 c28 -49
46 -142 27 -142 -5 0 -10 5 -10 10 0 6 -4 15 -8 22 -4 6 -4 19 0 29 5 13 3 16
-10 11 -11 -4 -14 -2 -10 9 5 14 -35 84 -49 84 -13 0 -4 -21 20 -48 12 -14 20
-32 18 -39 -3 -7 -2 -33 3 -58 5 -25 5 -42 0 -39 -5 3 -9 14 -9 25 0 10 -5 19
-11 19 -5 0 -8 4 -5 9 4 5 -10 20 -31 32 -20 13 -31 25 -25 27 7 2 12 8 12 12
0 5 -19 -1 -42 -13 l-43 -23 0 -76 c0 -42 -4 -80 -9 -85 -5 -4 -5 2 -1 16 5
16 4 21 -4 17 -6 -4 -11 -14 -11 -22 0 -8 -4 -14 -10 -14 -5 0 -10 -4 -10 -10
0 -5 8 -6 17 -3 16 6 16 5 0 -17 -21 -30 -23 -51 -2 -24 14 18 14 17 5 -9 -14
-39 -13 -44 5 -21 8 10 15 14 15 8 0 -6 -7 -17 -15 -24 -8 -7 -15 -9 -15 -5 0
5 -10 0 -21 -11 -22 -19 -22 -19 -10 3 14 27 14 36 1 28 -5 -3 -10 3 -10 14 0
12 5 21 10 21 6 0 10 5 10 11 0 5 -5 7 -12 3 -7 -4 -2 9 10 30 25 42 27 50 11
40 -7 -4 -27 -8 -46 -10 -18 -2 -48 -13 -65 -25 -30 -22 -31 -23 -9 -31 17 -6
21 -13 16 -30 -5 -18 -4 -19 4 -8 5 8 13 11 17 8 10 -11 -5 -60 -16 -53 -6 4
-8 11 -5 16 4 5 1 9 -4 9 -6 0 -11 -4 -11 -10 0 -5 -15 -10 -32 -10 -30 1 -31
2 -13 13 21 12 30 47 13 47 -5 0 -6 5 -3 10 11 17 -3 11 -50 -22 -45 -32 -45
-32 -23 -44 17 -9 25 -9 30 -1 5 8 8 8 8 1 0 -18 -12 -24 -29 -14 -21 11 -33
3 -49 -33 -9 -20 -9 -26 -1 -21 9 5 10 -1 5 -20 -3 -14 -2 -26 3 -26 5 0 8
-34 7 -75 0 -41 -5 -75 -10 -75 -5 0 -3 -6 3 -13 15 -19 2 -29 -15 -13 -7 7
-11 24 -8 37 l5 24 -10 -23 c-6 -12 -8 -30 -4 -40 3 -9 3 -14 -2 -10 -4 4 -14
3 -21 -3 -8 -6 -14 -7 -18 0 -4 6 -13 8 -21 5 -22 -9 -29 22 -15 56 17 40 28
46 24 12 -2 -15 -1 -19 2 -9 3 9 9 17 13 17 4 0 13 11 19 25 15 32 15 46 1 23
-5 -10 -14 -18 -19 -18 -5 0 0 16 12 35 11 20 22 55 23 78 2 35 1 39 -9 23 -6
-10 -20 -30 -32 -45 -12 -14 -29 -40 -38 -58 -9 -17 -21 -35 -27 -39 -8 -4 -8
0 0 15 10 18 9 21 -9 21 -20 0 -21 -4 -14 -47 4 -27 8 -56 8 -65 0 -10 3 -18
7 -18 12 0 16 -49 5 -53 -6 -3 -20 3 -30 12 -11 9 -16 10 -12 3 4 -7 -9 -3
-29 8 -19 11 -55 20 -78 21 -39 0 -40 1 -17 11 14 6 30 12 36 13 34 8 60 19
66 29 15 22 8 36 -16 34 -14 -1 -22 -7 -19 -12 4 -5 -1 -7 -12 -2 -15 5 -16 4
-6 -8 11 -13 9 -15 -8 -11 -11 2 -30 -4 -43 -14 -13 -10 -57 -37 -98 -60 -100
-55 -216 -146 -257 -199 -31 -41 -33 -48 -33 -128 0 -46 3 -84 6 -84 4 0 49
12 102 26 118 32 168 29 257 -17 77 -39 100 -61 119 -114 13 -38 15 -40 52
-37 50 3 299 127 328 163 27 34 152 103 171 95 9 -3 27 -34 42 -68 15 -35 58
-124 96 -198 59 -116 69 -141 66 -180 -7 -109 -3 -220 10 -278 l14 -64 -85
-86 c-88 -91 -106 -115 -132 -175 l-15 -37 387 0 386 0 -48 49 c-26 27 -44 51
-38 55 10 6 45 -27 37 -36 -3 -3 10 -19 30 -37 l36 -31 583 0 584 0 7 68 c7
68 71 524 99 707 9 55 16 118 16 140 1 79 26 82 126 17 138 -89 243 -152 294
-175 30 -13 79 -41 109 -61 29 -20 59 -36 67 -36 7 0 20 13 28 28 23 45 91
100 131 108 66 12 167 -1 233 -31 97 -43 202 -169 202 -242 0 -41 -60 -135
-83 -129 -12 3 -21 -3 -27 -17 -5 -12 -9 -18 -9 -13 -1 5 -17 -9 -37 -30 -20
-21 -49 -54 -66 -72 -16 -17 -35 -32 -41 -32 -7 0 -32 -21 -57 -46 -25 -26
-76 -77 -115 -115 l-70 -68 98 -1 c82 0 97 2 97 16 0 29 31 124 45 138 8 7 11
16 8 19 -11 11 153 158 203 182 63 31 87 57 104 115 26 88 16 309 -16 371 -15
30 -71 77 -122 103 -23 12 -32 22 -28 33 5 13 4 14 -9 3 -12 -10 -21 -8 -49
13 -18 15 -35 24 -38 22 -2 -2 -3 13 -3 35 0 21 3 42 8 46 4 4 7 -9 7 -30 0
-27 7 -43 26 -61 15 -14 30 -25 34 -25 16 0 18 29 4 40 -8 7 -14 19 -14 27 0
8 -22 37 -49 64 -44 44 -54 49 -94 49 -24 0 -69 9 -100 19 -30 11 -58 16 -62
13 -3 -4 -10 0 -15 8 -8 13 -10 12 -10 -3 0 -10 -5 -15 -10 -12 -6 4 -8 10 -5
15 3 5 -1 36 -9 69 -8 33 -12 70 -9 81 3 11 0 20 -6 20 -6 0 -11 7 -11 15 0
12 -28 35 -44 35 -11 0 -6 -36 7 -49 10 -11 10 -13 0 -7 -10 5 -13 -4 -13 -35
0 -36 -2 -40 -15 -29 -12 10 -15 9 -16 -4 -2 -28 -4 -34 -9 -40 -3 -3 -7 6 -8
20 -1 14 -6 33 -12 43 -5 10 -8 20 -7 22 1 2 -3 -2 -10 -9 -6 -8 -17 -11 -23
-7 -9 6 -9 2 -1 -13 6 -12 7 -23 2 -26 -13 -8 -19 -52 -10 -69 6 -10 4 -17 -6
-21 -10 -3 -15 1 -15 11 0 14 -2 14 -15 -3 -12 -16 -14 -16 -15 -3 0 9 7 22
15 29 8 7 15 22 15 34 0 17 -2 18 -9 6 -6 -8 -7 -18 -4 -23 3 -5 0 -7 -8 -5
-8 3 -13 11 -11 17 1 6 -5 14 -13 17 -22 9 -20 80 3 87 9 4 36 18 60 31 23 14
42 23 42 19 0 -3 8 1 18 9 19 17 53 32 65 29 5 -1 7 6 5 16 -2 13 -11 17 -31
15 -17 -2 -29 2 -33 12 -3 8 -14 13 -25 11 -12 -2 -19 2 -19 11 0 8 -5 14 -11
14 -5 0 -7 5 -4 10 4 6 15 8 26 5 31 -10 22 3 -22 31 -32 20 -44 23 -49 13 -6
-9 -22 1 -57 34 -26 26 -54 47 -60 47 -7 0 -13 3 -14 8 -1 4 -2 24 -4 45 -2
21 -17 58 -34 84 -17 26 -31 51 -31 56 0 5 -6 7 -14 4 -18 -7 -38 16 -34 38 4
23 -153 108 -242 131 -36 9 -79 25 -96 34 -17 10 -46 21 -64 25 -27 6 -37 2
-61 -21 l-28 -27 -76 39 c-83 42 -100 60 -139 148 -31 70 -31 71 -6 106 l19
27 -39 -19 c-21 -11 -45 -21 -52 -22 -7 -1 -18 -5 -24 -8 -6 -4 -37 -17 -69
-29 -51 -19 -71 -21 -155 -16 -53 3 -115 12 -137 20 -43 15 -167 109 -203 154
-22 28 -22 28 -15 3z m112 -248 c21 -35 46 -77 55 -94 9 -17 23 -35 30 -39 9
-6 9 -9 -4 -14 -20 -8 -100 50 -117 85 -7 14 -21 41 -31 61 -11 19 -23 57 -26
85 l-6 49 31 -35 c17 -19 48 -63 68 -98z m523 21 c0 -15 -17 -34 -31 -36 -8
-2 -20 -6 -27 -11 -7 -4 -15 -6 -18 -3 -2 2 13 16 33 30 44 30 43 29 43 20z
m-1143 -109 c-3 -3 -12 -4 -19 -1 -8 3 -5 6 6 6 11 1 17 -2 13 -5z m-44 -11
c-7 -2 -21 -2 -30 0 -10 3 -4 5 12 5 17 0 24 -2 18 -5z m-76 -9 c-3 -3 -12 -4
-19 -1 -8 3 -5 6 6 6 11 1 17 -2 13 -5z m1 -44 c-2 -5 1 -10 6 -9 9 1 26 -20
26 -33 0 -5 -9 -8 -21 -8 -13 0 -18 -4 -13 -12 5 -10 4 -10 -6 -1 -17 16 -20
56 -6 65 15 10 16 10 14 -2z m-44 -76 c4 -9 3 -20 0 -23 -4 -3 -9 0 -11 7 -3
6 -9 10 -14 7 -5 -4 -6 1 -3 9 8 21 20 20 28 0z m-138 -69 c9 -40 -4 -27 -16
15 -6 20 -6 30 -1 24 5 -5 13 -22 17 -39z m162 10 c-3 -3 -9 2 -12 12 -6 14
-5 15 5 6 7 -7 10 -15 7 -18z m1049 -41 c32 -9 37 -34 12 -60 -25 -27 -33 -24
-54 17 -23 43 -10 57 42 43z m1040 -196 c-3 -8 -6 -5 -6 6 -1 11 2 17 5 13 3
-3 4 -12 1 -19z m-2536 -15 c-8 -15 -10 -15 -11 -2 0 17 10 32 18 25 2 -3 -1
-13 -7 -23z m119 6 c-7 -11 -14 -18 -17 -15 -3 3 0 12 7 21 18 21 23 19 10 -6z
m-155 -1 c5 4 5 2 2 -4 -3 -6 7 -18 23 -27 27 -16 28 -16 23 1 -2 11 3 24 14
32 10 8 15 11 11 6 -14 -17 13 -48 37 -44 20 4 22 3 12 -13 -6 -10 -13 -17
-16 -16 -4 1 -16 -4 -28 -11 -21 -11 -27 -8 -68 29 -25 23 -45 46 -45 51 0 7
5 6 13 -1 8 -6 18 -7 22 -3z m-168 -100 c-3 -8 -6 -5 -6 6 -1 11 2 17 5 13 3
-3 4 -12 1 -19z m1193 -8 c0 -6 -9 -2 -20 7 -11 10 -20 19 -20 21 0 1 9 -2 20
-8 11 -6 20 -15 20 -20z m-1220 -20 c-6 -11 -13 -20 -16 -20 -2 0 0 9 6 20 6
11 13 20 16 20 2 0 0 -9 -6 -20z m805 -10 c3 -6 -1 -7 -9 -4 -18 7 -21 14 -7
14 6 0 13 -4 16 -10z m474 -1 c19 -7 30 -16 27 -24 -7 -19 4 -26 24 -15 13 7
24 5 42 -10 12 -11 19 -19 14 -20 -5 0 -19 8 -30 18 -11 9 -6 -1 12 -24 34
-44 62 -71 62 -59 0 4 7 2 16 -6 13 -10 17 -10 24 0 5 9 10 10 14 2 4 -6 2
-11 -4 -11 -6 0 -8 -5 -4 -11 4 -8 11 -4 19 11 8 15 15 19 19 11 4 -6 2 -11
-5 -11 -7 0 -5 -8 7 -22 19 -21 19 -21 0 -14 -15 5 -17 4 -8 -7 19 -22 -25
-14 -46 8 -16 18 -16 18 3 4 18 -13 19 -13 7 3 -8 9 -19 15 -27 12 -7 -3 -16
0 -20 5 -3 6 -11 9 -16 5 -5 -3 -8 0 -7 7 2 7 -2 13 -9 14 -6 0 -15 4 -20 9
-5 5 -2 6 6 1 10 -6 12 -4 7 4 -6 9 -11 9 -21 1 -9 -7 -16 -6 -24 3 -6 8 -8
17 -4 20 3 4 -2 16 -12 27 -20 22 -41 27 -29 8 5 -9 2 -9 -9 1 -20 16 -22 25
-4 16 6 -4 0 3 -15 15 -16 12 -28 26 -28 31 0 11 0 11 39 -2z m371 -59 c0 -4
-7 -13 -15 -20 -13 -11 -14 -10 -8 5 5 14 3 17 -10 12 -11 -4 -17 -1 -17 7 0
9 8 12 25 8 14 -2 25 -8 25 -12z m-234 -42 l19 -23 -25 20 c-14 11 -27 21 -29
22 -2 2 0 3 6 3 5 0 18 -10 29 -22z m1604 12 c0 -5 -5 -10 -11 -10 -5 0 -7 5
-4 10 3 6 8 10 11 10 2 0 4 -4 4 -10z m-1200 -14 c0 5 9 -2 20 -16 13 -17 20
-20 20 -10 0 12 3 11 11 -3 6 -9 14 -15 18 -12 5 2 13 -1 19 -8 8 -10 -3 -12
-54 -12 -63 0 -77 8 -53 32 14 14 2 36 -13 27 -7 -4 -8 -2 -4 5 6 9 11 9 22 0
8 -6 14 -8 14 -3z m-202 -8 c-2 -7 3 -12 10 -10 8 1 11 -2 7 -8 -7 -12 -45
-14 -45 -2 0 8 21 32 27 32 2 0 2 -6 1 -12z m76 -57 c-13 -13 -17 -13 -21 -3
-4 11 -8 10 -22 -2 -9 -8 -25 -14 -36 -12 -26 4 -16 21 12 21 12 0 30 8 39 17
14 13 21 15 31 6 12 -9 11 -14 -3 -27z m82 -13 c5 4 -2 -6 -16 -21 -13 -15
-31 -26 -40 -24 -8 1 -20 -4 -27 -13 -7 -8 -13 -10 -13 -4 0 16 40 55 51 48 5
-3 9 -2 8 3 -1 4 -1 15 0 23 1 12 4 12 15 -2 7 -10 17 -14 22 -10z m1255 -65
c-9 -15 -10 -14 -7 7 6 35 7 37 12 23 3 -7 1 -20 -5 -30z m-1401 7 c-20 -13
-43 -13 -35 0 3 6 16 10 28 10 18 0 19 -2 7 -10z m46 -29 c15 12 17 12 12 -1
-2 -8 -13 -15 -23 -15 -10 0 -20 7 -22 15 -4 13 -3 13 5 1 9 -13 13 -13 28 0z
m-779 -143 c2 -17 0 -19 -7 -8 -5 8 -6 18 -4 22 8 12 10 10 11 -14z m2143 18
c0 -3 -4 -8 -10 -11 -5 -3 -10 -1 -10 4 0 6 5 11 10 11 6 0 10 -2 10 -4z
m-1991 -120 c9 -11 9 -16 -1 -22 -7 -4 -10 -4 -6 1 4 4 3 14 -3 22 -6 7 -9 13
-6 13 2 0 10 -6 16 -14z m2398 -11 c-15 -16 -19 -13 -11 9 3 9 10 13 15 10 5
-3 3 -11 -4 -19z m-2342 -76 c1 -19 -17 -30 -31 -18 -8 6 -14 5 -17 -5 -4 -9
-2 -18 4 -21 5 -4 7 -10 4 -15 -3 -4 2 -13 10 -20 8 -7 13 -16 10 -20 -3 -4 2
-13 10 -20 13 -11 15 -10 12 6 -1 11 -7 26 -12 34 -13 21 -15 41 -4 34 5 -3 7
-9 4 -14 -3 -5 -1 -11 5 -15 5 -3 10 -1 10 6 0 7 3 10 6 7 10 -11 12 -43 2
-61 -7 -15 -12 -16 -24 -6 -10 8 -14 8 -15 0 -3 -26 -4 -30 -11 -37 -4 -3 -5
3 -3 15 3 11 7 30 9 40 3 11 -2 25 -10 31 -7 7 -12 16 -9 20 3 5 1 11 -5 15
-7 4 -7 12 0 24 5 10 6 22 2 27 -4 5 2 2 12 -6 18 -13 19 -13 14 2 -5 11 -2
15 10 14 9 -2 17 -9 17 -17z m207 -153 c3 3 9 -1 14 -8 4 -7 4 -10 -1 -6 -4 4
-14 3 -21 -3 -13 -10 -26 2 -30 29 -2 10 2 10 15 -2 10 -9 20 -13 23 -10z
m-97 -25 c-2 -9 -4 -18 -4 -20 -1 -2 -8 2 -16 9 -17 14 -13 27 8 27 8 0 13 -7
12 -16z m420 9 c3 -6 -1 -7 -9 -4 -18 7 -21 14 -7 14 6 0 13 -4 16 -10z m-25
-40 c10 0 21 5 23 10 3 6 4 5 3 -2 -2 -7 -13 -13 -26 -13 -13 0 -24 6 -26 13
-1 7 0 8 3 2 2 -5 13 -10 23 -10z m-151 -3 c12 4 13 3 3 -5 -8 -5 -13 -13 -13
-17 1 -5 -5 -10 -13 -11 -9 -1 -14 3 -13 9 1 7 -4 11 -12 9 -12 -3 -12 -1 -1
13 8 10 17 12 23 6 5 -5 17 -7 26 -4z m-264 -36 c3 -5 2 -12 -3 -15 -5 -3 -9
1 -9 9 0 17 3 19 12 6z m41 -191 c-3 -22 0 -29 16 -33 11 -3 17 -10 14 -15 -3
-5 1 -15 9 -22 8 -7 12 -16 9 -21 -3 -5 0 -9 5 -9 6 0 11 -4 11 -9 0 -6 -9 -8
-21 -6 -13 3 -19 0 -16 -8 3 -7 10 -11 16 -9 7 1 10 -2 7 -7 -4 -5 -2 -12 4
-16 6 -4 8 -10 5 -15 -3 -5 -1 -11 5 -15 6 -4 7 -12 3 -18 -11 -17 -11 -30 0
-44 6 -9 6 -13 -2 -13 -6 0 -11 -7 -11 -16 0 -14 3 -14 18 -3 15 11 15 11 4
-1 -7 -8 -18 -15 -25 -15 -7 -1 -11 -7 -9 -14 1 -7 -2 -10 -8 -6 -6 4 -5 13 3
27 9 16 9 22 0 25 -7 3 -13 9 -13 15 0 6 6 6 15 -2 8 -7 15 -9 15 -6 0 4 -7
14 -15 22 -9 9 -15 11 -15 4 0 -6 -5 -8 -12 -3 -8 4 -6 -4 4 -18 13 -21 14
-26 2 -26 -8 0 -14 6 -14 12 0 7 -9 20 -20 30 -11 10 -20 15 -20 10 0 -4 -7
-2 -15 5 -8 7 -15 9 -15 5 0 -5 -9 0 -20 10 -11 10 -17 22 -13 28 3 6 1 7 -6
3 -6 -4 -9 -12 -6 -17 4 -5 2 -9 -2 -9 -12 0 -35 39 -28 50 3 5 0 12 -6 16 -8
5 -9 3 -4 -6 6 -9 4 -11 -6 -4 -9 5 -8 -1 4 -19 10 -15 15 -33 11 -39 -4 -6
-3 -8 4 -4 6 3 13 3 16 -2 2 -4 -4 -9 -16 -9 -13 -1 -18 3 -14 12 2 7 -2 19
-9 25 -8 7 -13 16 -10 19 2 4 -2 8 -10 8 -10 0 -12 -4 -5 -12 5 -7 6 -16 2
-20 -4 -5 -1 -5 7 0 10 6 12 4 6 -5 -6 -9 -4 -11 5 -5 9 5 11 4 6 -4 -8 -13
-25 -5 -44 21 -7 10 -18 18 -24 18 -6 0 -5 -7 3 -17 13 -16 12 -17 -3 -5 -11
9 -18 10 -23 2 -3 -5 -14 -10 -23 -10 -15 0 -15 2 1 18 10 9 28 17 40 18 22 1
80 22 64 23 -5 1 -5 6 -2 11 5 8 11 7 20 0 8 -7 19 -9 24 -6 5 4 13 1 17 -5 5
-8 3 -9 -7 -4 -12 8 -12 6 0 -8 17 -22 21 -21 16 3 -2 12 3 21 16 25 21 7 42
-2 34 -15 -3 -5 -1 -11 5 -15 6 -4 8 -10 5 -15 -3 -4 2 -13 10 -20 8 -7 15 -9
15 -5 0 5 8 1 18 -7 21 -19 49 -20 49 -2 0 7 -4 11 -8 8 -4 -2 -6 4 -4 14 3
16 -2 18 -31 17 -21 -2 -31 1 -27 8 4 6 1 7 -7 2 -9 -6 -11 -4 -5 5 6 9 4 11
-5 5 -9 -6 -11 -4 -5 5 4 7 2 16 -6 21 -11 7 -11 9 -1 9 7 0 10 5 7 10 -5 8
-11 8 -20 0 -10 -8 -13 -7 -11 4 6 40 44 44 41 5 -3 -34 26 -76 43 -65 8 5 9
13 3 24 -4 9 -7 25 -5 35 2 14 -2 17 -14 13 -10 -4 -7 2 7 12 l24 19 -22 6
c-12 3 -20 10 -19 15 2 6 -1 10 -7 11 -5 1 -10 -3 -10 -8 0 -5 -4 -13 -8 -18
-5 -4 -8 -3 -7 2 1 6 1 12 0 15 -13 35 -2 45 29 26 11 -7 13 -4 9 12 -4 13 -2
20 3 16 6 -3 8 -18 5 -34z m70 11 c12 10 12 6 5 -30 -1 -2 -8 2 -16 9 -8 7
-15 9 -15 6 0 -4 -5 -4 -10 -1 -6 4 -7 11 -4 17 4 6 10 6 17 -1 7 -7 14 -7 23
0z m120 -95 c1 -9 -4 -20 -11 -26 -10 -9 -13 -7 -10 7 2 10 4 19 4 21 3 7 -5
17 -12 14 -5 -1 -5 3 -2 9 9 13 28 -3 31 -25z m-46 -21 c-5 -6 -8 -15 -5 -19
3 -3 -1 -2 -7 4 -7 6 -13 22 -14 35 -1 24 0 24 18 9 12 -12 15 -21 8 -29z
m-114 -78 c3 -21 -9 -22 -26 -2 -7 8 -16 13 -20 10 -5 -3 -11 -2 -14 3 -3 5 9
8 26 7 21 -1 32 -7 34 -18z m270 -1 c2 -14 0 -15 -12 -5 -8 6 -14 8 -14 5 0
-4 -5 -4 -10 -1 -15 9 -3 24 17 21 9 -2 17 -10 19 -20z m-576 -21 c8 0 21 -4
28 -8 7 -5 12 -3 12 5 0 8 5 6 11 -5 6 -9 15 -14 21 -11 6 4 8 3 5 -3 -4 -6 0
-16 9 -23 8 -7 13 -19 10 -27 -3 -8 -2 -12 3 -9 4 3 18 -6 31 -19 16 -17 31
-23 46 -21 13 3 27 -1 31 -7 9 -15 14 -41 6 -33 -4 3 -12 1 -20 -6 -11 -9 -13
-8 -11 2 2 7 -3 15 -11 18 -8 2 -11 0 -7 -6 3 -6 -1 -9 -9 -8 -21 3 -65 47
-59 58 3 5 -2 8 -11 6 -11 -2 -19 4 -20 14 -2 11 2 15 11 11 20 -7 17 11 -4
30 -14 12 -21 14 -29 6 -7 -7 -20 -9 -30 -5 -10 4 -19 6 -19 4 -1 -2 -11 5
-23 16 -21 19 -19 43 2 29 7 -4 19 -8 27 -8z m414 -4 c12 -14 14 -19 4 -17
-22 3 -39 17 -33 27 8 12 9 12 29 -10z m-199 -21 c-7 12 -6 13 7 3 8 -7 17
-11 20 -8 3 3 11 -2 18 -11 10 -11 11 -20 3 -32 -5 -9 -9 -25 -7 -35 1 -9 -2
-15 -7 -11 -5 3 -7 10 -4 15 4 5 2 9 -4 9 -5 0 -13 -5 -16 -11 -5 -7 -13 -4
-26 7 -19 17 -16 40 4 27 19 -12 49 -14 42 -3 -3 5 -1 10 5 10 6 0 8 5 4 11
-4 8 -9 8 -13 1 -11 -18 -43 -7 -57 19 -21 38 -16 45 13 18 14 -13 22 -17 18
-9z m-39 -42 c1 -27 -2 -35 -12 -31 -8 3 -14 9 -14 15 0 5 -4 7 -9 3 -10 -6
-24 11 -27 32 -1 7 5 9 14 6 9 -4 13 -2 9 4 -4 6 3 10 16 9 18 -1 22 -7 23
-38z m449 11 c0 -29 -35 -38 -55 -14 -8 10 -9 15 -1 15 6 0 11 -4 11 -10 0 -5
9 -10 20 -10 23 0 26 19 8 39 -11 11 -10 13 2 9 8 -3 15 -16 15 -29z m-238
-29 c-1 -21 -10 -18 -13 5 -1 8 2 15 6 15 5 0 8 -9 7 -20z m56 -4 c3 3 4 -2 2
-13 -2 -10 -4 -20 -4 -22 -1 -2 -10 4 -21 14 -21 19 -17 43 4 26 7 -6 15 -8
19 -5z m-187 -83 c-10 -11 -19 -7 -22 10 -2 15 0 16 12 6 8 -6 12 -14 10 -16z
m160 5 c3 -4 -1 -5 -10 -4 -8 1 -18 5 -22 8 -3 4 1 5 10 4 8 -1 18 -5 22 -8z
m48 3 c3 -5 -2 -15 -12 -22 -15 -12 -16 -12 -5 2 7 9 10 19 6 22 -3 4 -4 7 0
7 3 0 8 -4 11 -9z"/>
<path d="M2428 1408 c-10 -25 -3 -33 29 -33 18 -1 30 2 27 7 -3 5 -9 6 -14 3
-5 -3 -15 4 -23 15 -10 15 -16 17 -19 8z m16 -16 c3 -5 -1 -9 -9 -9 -8 0 -12
4 -9 9 3 4 7 8 9 8 2 0 6 -4 9 -8z"/>
<path d="M2286 1381 c-4 -5 -2 -12 3 -15 5 -4 12 -2 15 3 4 5 2 12 -3 15 -5 4
-12 2 -15 -3z"/>
<path d="M2030 716 c0 -2 8 -10 18 -17 15 -13 16 -12 3 4 -13 16 -21 21 -21
13z"/>
<path d="M1786 422 c-3 -5 1 -9 9 -9 8 0 12 4 9 9 -3 4 -7 8 -9 8 -2 0 -6 -4
-9 -8z"/>
<path d="M1864 407 c0 -13 5 -24 12 -24 14 0 12 23 -2 37 -7 7 -10 2 -10 -13z"/>
<path d="M1973 395 c0 -8 4 -12 9 -9 5 3 6 10 3 15 -9 13 -12 11 -12 -6z"/>
<path d="M1538 280 c7 -8 17 -16 23 -16 5 -1 10 -2 12 -4 9 -8 38 -6 44 2 3 6
1 8 -5 4 -6 -3 -13 -2 -16 3 -4 5 -14 8 -24 6 -9 -1 -24 2 -32 8 -13 9 -13 9
-2 -3z"/>
<path d="M1676 182 c-3 -5 5 -19 18 -31 13 -13 26 -18 30 -13 3 5 -5 19 -18
31 -13 13 -26 18 -30 13z m29 -22 c10 -11 16 -20 13 -20 -3 0 -13 9 -23 20
-10 11 -16 20 -13 20 3 0 13 -9 23 -20z"/>
<path d="M1751 144 c6 -7 16 -11 21 -8 11 7 3 17 -18 20 -12 2 -13 -1 -3 -12z"/>
<path d="M1760 207 c0 -2 6 -10 14 -16 11 -9 16 -9 22 1 4 7 4 10 -1 6 -4 -4
-14 -3 -22 3 -7 6 -13 9 -13 6z"/>
<path d="M1716 241 c-4 -5 -2 -12 3 -15 5 -4 12 -2 15 3 4 5 2 12 -3 15 -5 4
-12 2 -15 -3z"/>
<path d="M1980 196 c0 -2 8 -10 18 -17 15 -13 16 -12 3 4 -13 16 -21 21 -21
13z"/>
<path d="M2236 2454 c-7 -18 32 -44 65 -44 14 0 36 9 48 19 l22 20 -48 6 c-26
3 -56 8 -65 9 -9 2 -19 -2 -22 -10z"/>
<path d="M650 1481 c-12 -24 -13 -31 -1 -31 5 0 11 11 13 25 6 30 2 32 -12 6z"/>
<path d="M3692 1370 c0 -14 2 -19 5 -12 2 6 2 18 0 25 -3 6 -5 1 -5 -13z"/>
<path d="M3650 1369 c0 -5 5 -7 10 -4 6 3 10 8 10 11 0 2 -4 4 -10 4 -5 0 -10
-5 -10 -11z"/>
<path d="M3540 1318 c0 -16 5 -28 10 -28 13 0 13 20 0 40 -8 12 -10 9 -10 -12z"/>
<path d="M0 438 c0 -8 10 -23 22 -34 l21 -19 -18 30 c-26 41 -25 40 -25 23z"/>
<path d="M45 370 c3 -5 8 -10 11 -10 2 0 4 5 4 10 0 6 -5 10 -11 10 -5 0 -7
-4 -4 -10z"/>
<path d="M105 274 c60 -93 87 -134 91 -134 8 0 -12 38 -43 85 -18 27 -33 53
-33 57 0 9 -37 48 -45 48 -3 0 10 -25 30 -56z"/>
<path d="M1720 96 c0 -2 8 -10 18 -17 15 -13 16 -12 3 4 -13 16 -21 21 -21 13z"/>
</g>
</svg>
